Patient4_TMGait_0pt8_01_left_43_EMG.mot
version=1
nRows=30
nColumns=33
inDegrees=no
endheader
time	1LAddLong	2LGlutMax	3LGlutMed	4LIliopsoas	5LSemiMemb	6LBicFemLong	7LRecFem	8LVastMed	9LVastLat	10LGasMed	11LTibAnt	12lTibPost	13LPeroneusLong	14LSol	15LExtDigLong	16LFlexDigLong	17RAddLong	18RGlutMax	19RGlutMed	20RIliopsoas	21RSemiMemb	22RBicFemLong	23RRecFem	24RVastMed	25RVastLat	26RGasMed	27RTibAnt	28RTibPost	29RPeroneusLong	30RSol	31RExtDigLong	32RFlexDigLong
47.71	-0.002136	-0.99472	-0.046082	0.011139	-0.001373	-0.013885	0.42496	0.014496	-0.55145	0.033569	0.055084	0.016327	0.041199	0.017395	0.031281	-0.011292	-0.04425	0.62042	-0.18356	0.041199	0.1326	-0.13672	0.12543	0.089569	0.11795	0.072479	0.053558	0.000763	-0.60089	0.17105	-0.002594	-0.006256
47.711	-0.006104	-0.82214	-0.054169	0.005798	-0.00885	-0.020752	0.42511	0.016479	-0.59143	0.022278	-0.083923	0.01297	0.027313	-0.078583	-0.094604	-0.027313	-0.020142	0.68222	-0.28839	0.015717	0.13519	-0.19104	0.070496	0.064392	0.071716	0.069733	0.027161	-0.016937	-0.18555	0.11536	-0.002594	-0.002441
47.712	0.001373	-0.64362	-0.051117	-0.005951	-0.001984	-0.000153	0.40863	0.019684	-0.57953	0.056915	-0.037384	0.010071	-0.005798	-0.16907	0.002136	-0.021057	-0.005646	0.63004	0.15045	0.003052	0.11963	-0.17303	-0.097656	-0.052795	0.042877	0.038452	-0.001831	-0.005798	0.018005	0.09552	-0.009155	0.004272
47.713	-0.001526	-0.45334	-0.03891	-0.003052	-0.005188	-0.021057	0.38254	-0.03006	-0.56427	0.044861	0.063324	-0.005646	0.010986	-0.079803	0.059662	-0.016174	-0.011597	0.5957	0.34775	-0.023804	0.053253	-0.14221	-0.19134	-0.069427	0.01358	0.031891	0.032196	0.000153	0.070496	0.040131	-0.003052	0.006866
47.714	0.007477	-0.44983	-0.017395	0.006866	0.00061	-0.01236	0.36072	0.011444	-0.55801	-0.04837	0.20462	0.019073	0.020905	0.02182	0.001221	-0.013275	0.023193	0.62347	0.51376	-0.028839	-0.035553	-0.085602	-0.033112	-0.012512	-0.009155	0.02655	0.007019	-0.001526	0.12192	0.010071	-0.002747	-0.001068
47.715	0.001526	-0.47546	-0.014038	-0.004578	-0.005035	0.006256	0.33691	0.005646	-0.54153	-0.087433	-0.066833	0.015106	0.10437	0.028534	-0.08194	-0.00351	0.01709	0.68924	0.29907	-0.009613	-0.11887	0.018616	0.040741	-0.010681	-0.057526	0.025482	-0.017242	0.005341	0.12177	-0.00885	-0.003662	0.007782
47.716	-0.005188	-0.49667	-0.050354	0.015259	0.001984	0.006104	0.31525	0.015564	-0.4512	-0.080414	-0.10376	0.012207	0.11841	-0.005493	0.14236	-0.021667	0.01358	0.59525	-0.42541	0.032654	-0.18524	0.04837	0.024872	-0.06073	-0.028229	0.00946	0.052032	0.000916	0.12772	0.048828	-0.006714	0.001984
47.717	0.001373	-0.38177	-0.020294	0.005035	-0.002136	-0.014343	0.30579	0.010071	-0.35339	-0.050507	0.092621	0.018616	0.065155	0.010834	0.043793	-0.004578	-0.001373	0.5339	-0.60211	0.029755	-0.21515	0.13031	-0.10315	-0.15228	0.028839	-0.001526	-0.06012	0.002747	0.19104	0.055542	-0.000305	0.015106
47.718	0.000305	-0.27695	-0.026093	0.011444	-0.005646	-0.002899	0.27268	0.009766	-0.27084	0.024109	0.11841	0.016632	0.016632	-0.021973	-0.1326	-0.00351	0	0.44052	-0.74188	0.001221	0.080719	0.19577	-0.16647	-0.10162	0.13351	0.009155	-0.20889	-0.001678	0.21957	-0.0914	-0.001984	0.021362
47.719	0.007477	-0.12558	-0.063171	0.006714	-0.012817	-0.023956	0.22369	0.007629	-0.17731	0.083008	0.0177	0.014496	0.006104	-0.077667	-0.21927	-0.011444	-0.004578	0.27359	-0.39139	0.055542	0.1416	0.1442	-0.019379	-0.020905	0.13428	0.005951	-0.049286	0.00412	0.37399	-0.46845	-0.003662	0.014191
47.72	0.006866	0.005646	-0.056915	0.004578	-0.014038	-0.067596	0.20676	0.003662	-0.090942	0.082092	-0.019226	0.015869	-0.039825	-0.07019	-0.14343	-0.010071	0.004578	0.24323	-0.4805	0.05127	0.04776	0.068207	0.071564	0.031586	0.090942	0.009613	0.020294	0.002441	0.41672	-0.52719	0	0.012817
47.721	0.003357	0.12009	-0.065002	-0.006409	-0.002289	-0.098114	0.18616	0.007782	-0.047302	0.065308	-0.049133	0.01297	-0.09201	-0.063171	-0.064392	-0.002136	0.010071	0.19119	-0.37979	0.046082	-0.020752	0.046082	0.02243	0.037384	0.13397	0.008087	0.084839	0.003815	-0.014954	-0.024109	-0.004272	0.009155
47.722	0.006714	0.23499	-0.037079	-0.003815	-0.001221	-0.081787	0.16739	0.00885	0.005798	0.033569	-0.068359	0.020294	-0.053101	-0.035706	0.097351	-0.001984	-0.000305	0.26871	0.18265	-0.00824	-0.024719	0.063477	-0.071869	0.03418	0.079956	0.007629	-0.028534	0.001068	-0.23086	-0.093231	0.003357	0.007477
47.723	0.002747	0.33417	-0.058899	0.012512	0.003967	-0.074158	0.13809	0.008392	0.056915	-0.013275	-0.042114	0.012512	0.075684	-0.01709	0.22217	0.010223	-0.015259	0.25757	-0.031738	-0.11704	0.014496	0.18005	-0.08667	0.014954	0.030518	0.009003	-0.20279	-0.000305	0.063934	-0.23163	-0.00351	0.003052
47.724	0.015717	0.41321	-0.084229	0.006409	0	-0.077667	0.11887	0.009155	0.066071	-0.015411	0.015564	0.015564	0.1294	-0.04303	0.17868	0.012054	-0.01358	0.20462	-0.3122	-0.27649	0.035553	0.25482	-0.086365	-0.00946	0.021667	0.007172	-0.27084	-0.000763	-0.084991	0.04425	-0.007935	0.007324
47.725	0.007629	0.48706	-0.032043	0.001984	0.005798	-0.063324	0.12207	0.010071	0.089111	0.001831	0.010223	0.018463	0.06897	-0.080109	0.076752	0.013275	-0.007782	0.16342	0.20248	-0.33554	-0.032196	0.19577	-0.053558	-0.013275	0.035553	0.009155	-0.20248	0.003357	-0.41565	-0.088043	-0.004272	0.001221
47.726	0.00824	0.58945	-0.015259	0.004883	0.001068	-0.02182	0.121	0.008545	0.12833	0.011139	0.014801	0.019226	0.028992	-0.06134	-0.014954	0.011444	0.013123	0.14969	0.23651	-0.27283	-0.049896	0.028229	0.002747	-0.057678	0.071106	0.001221	0.12421	0.000458	-1.1516	-0.096283	-0.001984	0.000763
47.727	0.006866	0.63034	-0.031128	-0.01358	0.002441	0.002441	0.099335	0.009766	0.16022	0.011139	0.014801	-0.001068	0.015717	-0.04425	-0.076599	0.011444	0.002899	0.11459	0.26123	-0.0177	0.033722	0.077667	0.024872	-0.067902	0.098724	-0.000305	0.27435	-0.005646	-0.95184	-0.041504	-0.001526	0.002441
47.728	0.004272	0.70343	-0.040436	-0.011292	0.005188	0.021057	0.084534	0.008392	0.18784	0.021362	0.000458	0.011597	0.014343	-0.079346	-0.068665	0.02121	0.009918	0.17258	0.43198	0.15381	0.008087	0.01358	-0.054016	0.000153	0.14221	-0.001831	0.12161	0.004272	0.3186	0.12146	-0.003357	-0.000458
47.729	0.003967	0.66711	-0.071716	0.023956	-0.013733	0.004883	0.071564	0.00885	0.21606	0.019684	-0.021515	0.014038	0.019226	-0.11078	-0.044861	0.016327	-0.01358	0.18997	-0.070648	0.13794	-0.11444	-0.19898	0.018311	-0.002289	0.13001	-0.007019	-0.033417	0.002594	0.81772	0.21973	0.002594	-0.003815
47.73	0.001373	0.70374	-0.071716	0.03418	-0.047607	-0.037384	0.056305	0.007324	0.23483	-0.011597	-0.035706	0.006714	0.027771	-0.12634	-0.019073	0.023499	0.005493	0.14252	-0.19974	0.14862	-0.20645	-0.43457	0.17883	-0.055237	0.051727	-0.016022	0.13794	0.00061	-0.23056	0.15656	-0.003052	-0.00061
47.731	0.005798	0.70084	-0.053864	0.001221	-0.005188	-0.067749	0.052948	0.006866	0.25055	-0.032349	-0.008698	0.006256	0.017395	-0.096283	0.005341	0.021362	-0.005188	0.15182	-0.18417	0.13321	-0.048523	-0.55115	0.27206	-0.053711	-0.0177	-0.014496	0.54047	0.000305	-1.3985	-0.003052	-0.005188	0.000458
47.732	0.009003	0.69672	-0.056	0.002289	0.00885	-0.048065	0.016937	0.003052	0.2626	-0.056305	0.036163	0.010529	0	-0.13046	0.053253	0.025024	-0.00061	0.1297	-0.11581	0.062866	0.0177	-0.63232	0.088806	-0.089111	-0.080109	-0.000153	0.084229	0.000763	-1.4647	-0.121	-0.00412	-0.003204
47.733	0.010986	0.75089	-0.050507	0.004425	0.003967	-0.048523	0.018463	0.007019	0.26123	-0.11139	0.062561	0.013428	-0.009613	-0.12146	0.10346	0.023651	0.000305	0.15259	0.20615	0.036926	0.070953	-0.46814	0.003204	-0.28107	0.088501	0.001984	-0.07019	0.002289	1.9725	-0.1149	-0.001678	0.007477
47.734	0.005188	0.73074	-0.062714	-0.001221	0.005188	-0.036926	0.006256	0.005798	0.26428	-0.13687	0.059662	0.006714	0.040436	-0.095673	0.08728	0.015259	-0.006104	0.10864	0.29098	0.11063	0.10651	-0.24307	-0.19318	-0.27802	0.44357	-0.008545	0.070343	0.002136	1.1578	0.012665	-0.000458	0.002441
47.735	0.005035	0.74112	-0.051727	0.004883	-0.010376	-0.016632	-0.016632	0.009613	0.25055	-0.16052	0.014191	0.007477	0.10559	-0.080566	0.025482	0.029449	-0.039673	0.14313	0.2092	0.13123	0.075073	-0.027313	-0.30701	-0.15991	0.55389	0.000458	-0.30533	-0.005035	0.27374	-0.058289	-0.001221	0.00412
47.736	0.010223	0.77469	-0.047913	0.008087	-0.021057	-0.007019	-0.021362	0.013275	0.25818	-0.12512	-0.016479	0.01358	0.080414	-0.01358	-0.002136	0.016479	-0.043335	0.18356	0.5275	0.072784	-0.090332	0.13046	-0.26352	-0.084686	0.50064	0.008087	-0.44586	0.002441	-0.23911	-0.0737	-0.00351	0.002747
47.737	0.009155	0.78262	-0.051422	0.010681	-0.014648	0.009918	-0.023346	0.007324	0.24933	-0.066528	-0.01297	0.000458	0.038605	0.12787	-0.097809	0.013733	-0.033417	0.21698	0.84701	0.036926	-0.21057	0.26138	-0.33341	0.054016	0.3714	0.005493	-0.67017	0.000458	-0.31036	-0.072937	-0.003052	0.006866
47.738	0.005646	0.77881	-0.019684	0.006561	0.003815	-0.002441	-0.042572	0.009918	0.25421	0.044556	0.04837	-0.025787	0.024567	0.13763	-0.017395	0.024109	-0.015259	0.2214	0.26566	-0.00473	-0.060425	0.081177	-0.30197	0.048981	0.25986	0.003052	-0.60974	0.003204	1.1685	0.03067	-0.005341	-0.002136
47.739	0.014648	0.78278	-0.039215	0.004272	-0.002594	-0.004272	-0.051422	0.005493	0.25589	0.10208	0.076294	0.002747	0.051575	0.099182	0.073242	0.033569	-0.027466	0.2121	0.17548	-0.013275	-0.061035	0.059509	-0.25742	0.18051	0.11658	-0.000458	-0.1265	-0.001831	0.88821	-0.007935	-0.005188	0.004578
